<svg t="1699701903413" class="icon" viewBox="0 0 1024 1024" version="1.1" xmlns="http://www.w3.org/2000/svg" p-id="5171" width="128" height="128"><path d="M608 231.8c2.8 5.4 6.4 10.4 10.7 14.7 4.2 4 9.9 6.2 15.7 6h124.7v-13.4c-0.1-4.2-0.6-8.3-1.7-12.4-1.8-5.9-4.9-11.4-9-16.1-6.4-8.2-13.3-15.9-20.7-23.1-9-9-21.1-20.4-36.5-33.4-15.4-13-25.7-22.7-34.1-29.4-8.4-6.7-17.4-13-23.7-17.4-5.1-3.4-10.8-6-16.7-7.7-4.8-0.5-9.6-0.5-14.4 0h-1.7v98.7c0.1 4.9 0.9 9.7 2.3 14.4 1.2 5.8 3.2 11.5 6 16.7l-0.9 2.4z m0 0" fill="#4E8CEE" p-id="5172"></path><path d="M635.1 304.4c-14.2 0.5-28.2-3.1-40.5-10.4-11-6.4-20.4-15-27.8-25.4-7-10.2-12.3-21.5-15.7-33.4-3.1-10.9-4.8-22.1-5-33.4V98H222.4c-13.5-0.2-26.9 3.4-38.5 10.4-11.8 6.8-22.5 15.4-31.8 25.4-9.1 9.9-16.6 21.2-22.1 33.4-5.2 11.7-7.9 24.3-8 37.1v562.5c0.1 14 3.9 27.8 11 39.8 7.4 12.5 16.7 23.7 27.4 33.4 10.8 9.5 22.8 17.5 35.8 23.7 10.4 5.3 21.8 8.4 33.4 9h234.1l164.5-167.2c-8.9 6.9-19.9 10.4-31.1 10H280.6c-13.9 0.3-27.4-5.1-37.1-15.1-9.5-8.8-15.1-21.1-15.4-34.1-0.3-13.9 5.3-27.2 15.4-36.8 9.6-10.1 23.1-15.7 37.1-15.4h318.1c14.2-0.3 27.9 5.3 37.8 15.4 10.2 9.5 15.9 22.9 15.7 36.8 0 10.3-3.3 20.4-9.4 28.8L759.2 578V304.4H635.1z m0 191.6c-10.2 9.7-23.7 15-37.8 14.7H280.6c-13.8 0.3-27.2-5-37.1-14.7-10.1-9.4-15.7-22.7-15.4-36.5-0.2-13.9 5.4-27.2 15.4-36.8 9.8-9.9 23.2-15.4 37.1-15h318.1c14.1-0.3 27.7 5.2 37.8 15 10.2 9.5 15.9 22.9 15.7 36.8 0.2 13.8-5.6 27.1-15.7 36.5h-1.4z m0 0" fill="#A6C5F6" p-id="5173"></path><path d="M901.6 656.9c-0.4-5.7-1.6-11.3-3.3-16.7-3.6-8.1-8.7-15.5-15-21.7-5-5.9-11.2-10.8-18.1-14.4-6.1-3.2-12.8-5.1-19.7-5.4-8-0.9-16 2-21.7 7.7l-10.7 9c-3.6 3.6-7.4 6.9-11.4 10l71.9 69.6c2.2-1.5 4.2-3.1 6-5l6-6.4 7.7-7.7c5.5-4.7 8.5-11.7 8.3-19z m-211 76.6l-30.4 30.1-28.1 27.8-21.1 20.7-11 10.7c-5.7 5.3-10.3 11.7-13.7 18.7-1.8 4.2-3.3 8.4-4.7 12.7l-6.4 19.4-6 20.1c-1.7 6.7-2.7 11.7-3.3 14.7-1.4 4.7-0.8 9.8 1.7 14 2.3 2.7 6.7 3.7 13.7 2.7 5.1-1 10.1-2.2 15-3.7 7.2-1.5 14.4-3.4 21.4-5.7 7.4-2 14.4-4.7 21.7-7l17.7-8 10-6 9.4-7 28.8-28.8 28.1-27.4 30.4-29.8 82.3-79.9-71.2-69.6-84.3 81.3z m0 0" fill="#4E8CEE" p-id="5174"></path></svg>