<svg t="1699642300514" class="icon" viewBox="0 0 1024 1024" version="1.1" xmlns="http://www.w3.org/2000/svg" p-id="4994" width="128" height="128"><path d="M512 950.857143c242.834286 0 438.857143-196.022857 438.857143-438.857143 0-35.108571-4.388571-68.754286-11.702857-100.937143-70.217143 19.017143-137.508571 49.737143-198.948572 93.622857-149.211429 103.862857-244.297143 266.24-266.24 444.708572 11.702857 1.462857 24.868571 1.462857 38.034286 1.462857z" fill="#00BE06" opacity=".2" p-id="4995"></path><path d="M506.148571 955.245714c209.188571 26.331429 399.36-121.417143 425.691429-329.142857 4.388571-29.257143 4.388571-59.977143 1.462857-87.771428-62.902857 8.777143-124.342857 27.794286-181.394286 58.514285-138.971429 73.142857-239.908571 201.874286-277.942857 352.548572 10.24 2.925714 21.942857 4.388571 32.182857 5.851428z" fill="#00BE06" opacity=".4" p-id="4996"></path><path d="M927.451429 1024H535.405714c-45.348571 0-81.92-32.182857-81.92-73.142857s36.571429-73.142857 81.92-73.142857h392.045715c45.348571 0 81.92 32.182857 81.92 73.142857s-36.571429 73.142857-81.92 73.142857z" fill="#00BE06" opacity=".4" p-id="4997"></path><path d="M512 1024C229.668571 1024 0 794.331429 0 512S229.668571 0 512 0s512 229.668571 512 512-229.668571 512-512 512z m0-877.714286c-201.874286 0-365.714286 163.84-365.714286 365.714286s163.84 365.714286 365.714286 365.714286 365.714286-163.84 365.714286-365.714286-163.84-365.714286-365.714286-365.714286z" fill="#10C55B" p-id="4998"></path><path d="M380.342857 614.4V409.6c0-33.645714 36.571429-55.588571 65.828572-38.034286l177.005714 102.4c29.257143 17.554286 29.257143 59.977143 0 76.068572l-177.005714 102.4c-29.257143 17.554286-65.828571-4.388571-65.828572-38.034286z" fill="#10C55B" p-id="4999"></path></svg>