<svg t="1699699190650" class="icon" viewBox="0 0 1024 1024" version="1.1" xmlns="http://www.w3.org/2000/svg" p-id="5010" width="128" height="128"><path d="M706 352.14m-39.86 0l-200.28 0q-39.86 0-39.86-39.86l0-153.42q0-39.86 39.86-39.86l200.28 0q39.86 0 39.86 39.86l0 153.42q0 39.86-39.86 39.86Z" fill="#20C997" p-id="5011"></path><path d="M649.24 336.7v59.54a6.76 6.76 0 0 1-11.54 4.76L574 337.54z" fill="#20C997" p-id="5012"></path><path d="M481.3 190.7m12.76 0l147.3 0q12.76 0 12.76 12.76l0-0.02q0 12.76-12.76 12.76l-147.3 0q-12.76 0-12.76-12.76l0 0.02q0-12.76 12.76-12.76Z" fill="#63E6BE" p-id="5013"></path><path d="M477.88 254.94m12.76 0l71.68 0q12.76 0 12.76 12.76l0-0.02q0 12.76-12.76 12.76l-71.68 0q-12.76 0-12.76-12.76l0 0.02q0-12.76 12.76-12.76Z" fill="#63E6BE" p-id="5014"></path><path d="M564 233m55.12 0l229.76 0q55.12 0 55.12 55.12l0 173.52q0 55.12-55.12 55.12l-229.76 0q-55.12 0-55.12-55.12l0-173.52q0-55.12 55.12-55.12Z" fill="#FC7070" p-id="5015"></path><path d="M631.14 320.28m15.52 0l178.8 0q15.52 0 15.52 15.52l0 0q0 15.52-15.52 15.52l-178.8 0q-15.52 0-15.52-15.52l0 0q0-15.52 15.52-15.52Z" fill="#FFABAB" p-id="5016"></path><path d="M627 398.44m15.52 0l87 0q15.52 0 15.52 15.52l0 0q0 15.52-15.52 15.52l-87 0q-15.52 0-15.52-15.52l0 0q0-15.52 15.52-15.52Z" fill="#FFABAB" p-id="5017"></path><path d="M646.72 488.32v72.46a8.2 8.2 0 0 0 14 5.8L738 489.34z" fill="#FC7070" p-id="5018"></path><path d="M422.82 408.66a60.54 60.54 0 0 1 36.2 77.64l-92.88 255.04L252.26 700l92.98-255.12a60.54 60.54 0 0 1 77.58-36.22z" fill="#F9BF87" p-id="5019"></path><path d="M558.34 573.42H205.82v43.14H172v220h33.9v43.16h297.14A61.62 61.62 0 0 0 562 836l55.3-183.22a61.54 61.54 0 0 0-58.96-79.36z" fill="#F9BF87" p-id="5020"></path><path d="M120 535.8m30.78 0l80.16 0q30.78 0 30.78 30.78l0 307.64q0 30.78-30.78 30.78l-80.16 0q-30.78 0-30.78-30.78l0-307.64q0-30.78 30.78-30.78Z" fill="#5C7CFA" p-id="5021"></path><path d="M161.58 814.24a29.28 29.22 0 1 0 58.56 0 29.28 29.22 0 1 0-58.56 0Z" fill="#BAC8FF" p-id="5022"></path></svg>